<svg id="visual" viewBox="0 0 1200 220" width="1200" height="220" xmlns="http://www.w3.org/2000/svg" xmlns:xlink="http://www.w3.org/1999/xlink" version="1.1"><rect x="0" y="0" width="1200" height="220" fill="#fdad85"></rect><path d="M0 11L25 9.8C50 8.7 100 6.3 150 15.2C200 24 250 44 300 53.8C350 63.7 400 63.3 450 57.7C500 52 550 41 600 35.5C650 30 700 30 750 25.8C800 21.7 850 13.3 900 14C950 14.7 1000 24.3 1050 33.3C1100 42.3 1150 50.7 1175 54.8L1200 59L1200 221L1175 221C1150 221 1100 221 1050 221C1000 221 950 221 900 221C850 221 800 221 750 221C700 221 650 221 600 221C550 221 500 221 450 221C400 221 350 221 300 221C250 221 200 221 150 221C100 221 50 221 25 221L0 221Z" fill="#f79a5e"></path><path d="M0 40L25 43.7C50 47.3 100 54.7 150 53.5C200 52.3 250 42.7 300 42.5C350 42.3 400 51.7 450 50.5C500 49.3 550 37.7 600 41.5C650 45.3 700 64.7 750 72C800 79.3 850 74.7 900 72.3C950 70 1000 70 1050 69.8C1100 69.7 1150 69.3 1175 69.2L1200 69L1200 221L1175 221C1150 221 1100 221 1050 221C1000 221 950 221 900 221C850 221 800 221 750 221C700 221 650 221 600 221C550 221 500 221 450 221C400 221 350 221 300 221C250 221 200 221 150 221C100 221 50 221 25 221L0 221Z" fill="#e38158"></path><path d="M0 67L25 72.8C50 78.7 100 90.3 150 91.5C200 92.7 250 83.3 300 82.3C350 81.3 400 88.7 450 89C500 89.3 550 82.7 600 74.7C650 66.7 700 57.3 750 61.3C800 65.3 850 82.7 900 85.5C950 88.3 1000 76.7 1050 77C1100 77.3 1150 89.7 1175 95.8L1200 102L1200 221L1175 221C1150 221 1100 221 1050 221C1000 221 950 221 900 221C850 221 800 221 750 221C700 221 650 221 600 221C550 221 500 221 450 221C400 221 350 221 300 221C250 221 200 221 150 221C100 221 50 221 25 221L0 221Z" fill="#cd6a53"></path><path d="M0 118L25 114.5C50 111 100 104 150 102.8C200 101.7 250 106.3 300 103.3C350 100.3 400 89.7 450 91.8C500 94 550 109 600 114.7C650 120.3 700 116.7 750 113.2C800 109.7 850 106.3 900 101.2C950 96 1000 89 1050 86.2C1100 83.3 1150 84.7 1175 85.3L1200 86L1200 221L1175 221C1150 221 1100 221 1050 221C1000 221 950 221 900 221C850 221 800 221 750 221C700 221 650 221 600 221C550 221 500 221 450 221C400 221 350 221 300 221C250 221 200 221 150 221C100 221 50 221 25 221L0 221Z" fill="#b5544d"></path><path d="M0 143L25 135.5C50 128 100 113 150 109.8C200 106.7 250 115.3 300 115.3C350 115.3 400 106.7 450 107.3C500 108 550 118 600 120.5C650 123 700 118 750 115.5C800 113 850 113 900 112.3C950 111.7 1000 110.3 1050 110.3C1100 110.3 1150 111.7 1175 112.3L1200 113L1200 221L1175 221C1150 221 1100 221 1050 221C1000 221 950 221 900 221C850 221 800 221 750 221C700 221 650 221 600 221C550 221 500 221 450 221C400 221 350 221 300 221C250 221 200 221 150 221C100 221 50 221 25 221L0 221Z" fill="#9d4047"></path><path d="M0 147L25 147.2C50 147.3 100 147.7 150 144.3C200 141 250 134 300 136.7C350 139.3 400 151.7 450 152.8C500 154 550 144 600 140.2C650 136.3 700 138.7 750 143.5C800 148.3 850 155.7 900 159.5C950 163.3 1000 163.7 1050 157.7C1100 151.7 1150 139.3 1175 133.2L1200 127L1200 221L1175 221C1150 221 1100 221 1050 221C1000 221 950 221 900 221C850 221 800 221 750 221C700 221 650 221 600 221C550 221 500 221 450 221C400 221 350 221 300 221C250 221 200 221 150 221C100 221 50 221 25 221L0 221Z" fill="#832e3f"></path><path d="M0 150L25 156.5C50 163 100 176 150 178.2C200 180.3 250 171.7 300 170.7C350 169.7 400 176.3 450 181.3C500 186.3 550 189.7 600 189.5C650 189.3 700 185.7 750 181.3C800 177 850 172 900 170.5C950 169 1000 171 1050 167.5C1100 164 1150 155 1175 150.5L1200 146L1200 221L1175 221C1150 221 1100 221 1050 221C1000 221 950 221 900 221C850 221 800 221 750 221C700 221 650 221 600 221C550 221 500 221 450 221C400 221 350 221 300 221C250 221 200 221 150 221C100 221 50 221 25 221L0 221Z" fill="#691c37"></path><path d="M0 197L25 194.7C50 192.3 100 187.7 150 186.7C200 185.7 250 188.3 300 191.5C350 194.7 400 198.3 450 195.5C500 192.7 550 183.3 600 184.3C650 185.3 700 196.7 750 198.7C800 200.7 850 193.3 900 193.7C950 194 1000 202 1050 200.3C1100 198.7 1150 187.3 1175 181.7L1200 176L1200 221L1175 221C1150 221 1100 221 1050 221C1000 221 950 221 900 221C850 221 800 221 750 221C700 221 650 221 600 221C550 221 500 221 450 221C400 221 350 221 300 221C250 221 200 221 150 221C100 221 50 221 25 221L0 221Z" fill="#4f0c2d"></path></svg>