<svg id="visual" viewBox="0 0 1200 220" width="1200" height="220" xmlns="http://www.w3.org/2000/svg" xmlns:xlink="http://www.w3.org/1999/xlink" version="1.1"><rect x="0" y="0" width="1200" height="220" fill="#ffa1a1"></rect><path d="M0 45L25 48.2C50 51.3 100 57.7 150 56.3C200 55 250 46 300 44.7C350 43.3 400 49.7 450 44C500 38.3 550 20.7 600 21.2C650 21.7 700 40.3 750 50C800 59.7 850 60.3 900 59.3C950 58.3 1000 55.7 1050 52.2C1100 48.7 1150 44.3 1175 42.2L1200 40L1200 221L1175 221C1150 221 1100 221 1050 221C1000 221 950 221 900 221C850 221 800 221 750 221C700 221 650 221 600 221C550 221 500 221 450 221C400 221 350 221 300 221C250 221 200 221 150 221C100 221 50 221 25 221L0 221Z" fill="#f75e75"></path><path d="M0 79L25 77.8C50 76.7 100 74.3 150 69.2C200 64 250 56 300 52.8C350 49.7 400 51.3 450 51.7C500 52 550 51 600 54.5C650 58 700 66 750 62.2C800 58.3 850 42.7 900 34.7C950 26.7 1000 26.3 1050 28C1100 29.7 1150 33.3 1175 35.2L1200 37L1200 221L1175 221C1150 221 1100 221 1050 221C1000 221 950 221 900 221C850 221 800 221 750 221C700 221 650 221 600 221C550 221 500 221 450 221C400 221 350 221 300 221C250 221 200 221 150 221C100 221 50 221 25 221L0 221Z" fill="#d84f63"></path><path d="M0 102L25 101.5C50 101 100 100 150 93.5C200 87 250 75 300 67.8C350 60.7 400 58.3 450 61.5C500 64.7 550 73.3 600 78.7C650 84 700 86 750 88.8C800 91.7 850 95.3 900 89.5C950 83.7 1000 68.3 1050 63.7C1100 59 1150 65 1175 68L1200 71L1200 221L1175 221C1150 221 1100 221 1050 221C1000 221 950 221 900 221C850 221 800 221 750 221C700 221 650 221 600 221C550 221 500 221 450 221C400 221 350 221 300 221C250 221 200 221 150 221C100 221 50 221 25 221L0 221Z" fill="#b94151"></path><path d="M0 92L25 93.5C50 95 100 98 150 100.3C200 102.7 250 104.3 300 99.7C350 95 400 84 450 79.2C500 74.3 550 75.7 600 76.3C650 77 700 77 750 83.3C800 89.7 850 102.3 900 106.3C950 110.3 1000 105.7 1050 106.2C1100 106.7 1150 112.3 1175 115.2L1200 118L1200 221L1175 221C1150 221 1100 221 1050 221C1000 221 950 221 900 221C850 221 800 221 750 221C700 221 650 221 600 221C550 221 500 221 450 221C400 221 350 221 300 221C250 221 200 221 150 221C100 221 50 221 25 221L0 221Z" fill="#9b3341"></path><path d="M0 114L25 111.3C50 108.7 100 103.3 150 105.5C200 107.7 250 117.3 300 118C350 118.7 400 110.3 450 107.2C500 104 550 106 600 108.8C650 111.7 700 115.3 750 118.8C800 122.3 850 125.7 900 130.7C950 135.7 1000 142.3 1050 138.5C1100 134.7 1150 120.3 1175 113.2L1200 106L1200 221L1175 221C1150 221 1100 221 1050 221C1000 221 950 221 900 221C850 221 800 221 750 221C700 221 650 221 600 221C550 221 500 221 450 221C400 221 350 221 300 221C250 221 200 221 150 221C100 221 50 221 25 221L0 221Z" fill="#7f2531"></path><path d="M0 132L25 137.7C50 143.3 100 154.7 150 159.3C200 164 250 162 300 159.7C350 157.3 400 154.7 450 148.2C500 141.7 550 131.3 600 129.7C650 128 700 135 750 141.5C800 148 850 154 900 152.8C950 151.7 1000 143.3 1050 138.8C1100 134.3 1150 133.7 1175 133.3L1200 133L1200 221L1175 221C1150 221 1100 221 1050 221C1000 221 950 221 900 221C850 221 800 221 750 221C700 221 650 221 600 221C550 221 500 221 450 221C400 221 350 221 300 221C250 221 200 221 150 221C100 221 50 221 25 221L0 221Z" fill="#641823"></path><path d="M0 190L25 184.8C50 179.7 100 169.3 150 165C200 160.7 250 162.3 300 165.8C350 169.3 400 174.7 450 172.3C500 170 550 160 600 156.5C650 153 700 156 750 155.8C800 155.7 850 152.3 900 158.2C950 164 1000 179 1050 179.5C1100 180 1150 166 1175 159L1200 152L1200 221L1175 221C1150 221 1100 221 1050 221C1000 221 950 221 900 221C850 221 800 221 750 221C700 221 650 221 600 221C550 221 500 221 450 221C400 221 350 221 300 221C250 221 200 221 150 221C100 221 50 221 25 221L0 221Z" fill="#490b15"></path><path d="M0 200L25 202.3C50 204.7 100 209.3 150 210.3C200 211.3 250 208.7 300 208.8C350 209 400 212 450 207.5C500 203 550 191 600 188.7C650 186.3 700 193.7 750 197C800 200.3 850 199.7 900 196.7C950 193.7 1000 188.3 1050 190.8C1100 193.3 1150 203.7 1175 208.8L1200 214L1200 221L1175 221C1150 221 1100 221 1050 221C1000 221 950 221 900 221C850 221 800 221 750 221C700 221 650 221 600 221C550 221 500 221 450 221C400 221 350 221 300 221C250 221 200 221 150 221C100 221 50 221 25 221L0 221Z" fill="#320000"></path></svg>