<svg id="visual" viewBox="0 0 1200 220" width="1200" height="220" xmlns="http://www.w3.org/2000/svg" xmlns:xlink="http://www.w3.org/1999/xlink" version="1.1"><rect x="0" y="0" width="1200" height="220" fill="#f4c036"></rect><path d="M0 27L25 30.8C50 34.7 100 42.3 150 48.5C200 54.7 250 59.3 300 57.8C350 56.3 400 48.7 450 40.8C500 33 550 25 600 28.7C650 32.3 700 47.7 750 51.7C800 55.7 850 48.3 900 42.5C950 36.7 1000 32.3 1050 33.7C1100 35 1150 42 1175 45.5L1200 49L1200 221L1175 221C1150 221 1100 221 1050 221C1000 221 950 221 900 221C850 221 800 221 750 221C700 221 650 221 600 221C550 221 500 221 450 221C400 221 350 221 300 221C250 221 200 221 150 221C100 221 50 221 25 221L0 221Z" fill="#fce077"></path><path d="M0 76L25 72.8C50 69.7 100 63.3 150 59C200 54.7 250 52.3 300 50.2C350 48 400 46 450 46.8C500 47.7 550 51.3 600 48.5C650 45.7 700 36.3 750 32.8C800 29.3 850 31.7 900 37.7C950 43.7 1000 53.3 1050 56C1100 58.7 1150 54.3 1175 52.2L1200 50L1200 221L1175 221C1150 221 1100 221 1050 221C1000 221 950 221 900 221C850 221 800 221 750 221C700 221 650 221 600 221C550 221 500 221 450 221C400 221 350 221 300 221C250 221 200 221 150 221C100 221 50 221 25 221L0 221Z" fill="#efbb64"></path><path d="M0 81L25 78.7C50 76.3 100 71.7 150 72.3C200 73 250 79 300 77.3C350 75.7 400 66.3 450 66.5C500 66.7 550 76.3 600 84.2C650 92 700 98 750 101.8C800 105.7 850 107.3 900 101.3C950 95.3 1000 81.7 1050 73C1100 64.3 1150 60.7 1175 58.8L1200 57L1200 221L1175 221C1150 221 1100 221 1050 221C1000 221 950 221 900 221C850 221 800 221 750 221C700 221 650 221 600 221C550 221 500 221 450 221C400 221 350 221 300 221C250 221 200 221 150 221C100 221 50 221 25 221L0 221Z" fill="#dd9857"></path><path d="M0 118L25 112.7C50 107.3 100 96.7 150 98.2C200 99.7 250 113.3 300 118.3C350 123.3 400 119.7 450 114C500 108.3 550 100.7 600 93.5C650 86.3 700 79.7 750 81.5C800 83.3 850 93.7 900 103C950 112.3 1000 120.7 1050 116.5C1100 112.3 1150 95.7 1175 87.3L1200 79L1200 221L1175 221C1150 221 1100 221 1050 221C1000 221 950 221 900 221C850 221 800 221 750 221C700 221 650 221 600 221C550 221 500 221 450 221C400 221 350 221 300 221C250 221 200 221 150 221C100 221 50 221 25 221L0 221Z" fill="#c7784d"></path><path d="M0 120L25 122.3C50 124.7 100 129.3 150 128.2C200 127 250 120 300 116.3C350 112.7 400 112.3 450 114C500 115.7 550 119.3 600 122.2C650 125 700 127 750 127C800 127 850 125 900 127.5C950 130 1000 137 1050 136.7C1100 136.3 1150 128.7 1175 124.8L1200 121L1200 221L1175 221C1150 221 1100 221 1050 221C1000 221 950 221 900 221C850 221 800 221 750 221C700 221 650 221 600 221C550 221 500 221 450 221C400 221 350 221 300 221C250 221 200 221 150 221C100 221 50 221 25 221L0 221Z" fill="#ac5945"></path><path d="M0 131L25 133.5C50 136 100 141 150 143.5C200 146 250 146 300 142.8C350 139.7 400 133.3 450 133.8C500 134.3 550 141.7 600 141.7C650 141.7 700 134.3 750 134C800 133.7 850 140.3 900 142.8C950 145.3 1000 143.7 1050 140.2C1100 136.7 1150 131.3 1175 128.7L1200 126L1200 221L1175 221C1150 221 1100 221 1050 221C1000 221 950 221 900 221C850 221 800 221 750 221C700 221 650 221 600 221C550 221 500 221 450 221C400 221 350 221 300 221C250 221 200 221 150 221C100 221 50 221 25 221L0 221Z" fill="#8f3d3d"></path><path d="M0 177L25 179.5C50 182 100 187 150 188.2C200 189.3 250 186.7 300 187.2C350 187.7 400 191.3 450 186.3C500 181.3 550 167.7 600 164.8C650 162 700 170 750 169C800 168 850 158 900 160.2C950 162.3 1000 176.7 1050 182.8C1100 189 1150 187 1175 186L1200 185L1200 221L1175 221C1150 221 1100 221 1050 221C1000 221 950 221 900 221C850 221 800 221 750 221C700 221 650 221 600 221C550 221 500 221 450 221C400 221 350 221 300 221C250 221 200 221 150 221C100 221 50 221 25 221L0 221Z" fill="#6f2434"></path><path d="M0 180L25 183.2C50 186.3 100 192.7 150 197.2C200 201.7 250 204.3 300 202.7C350 201 400 195 450 194.2C500 193.3 550 197.7 600 198.2C650 198.7 700 195.3 750 195C800 194.7 850 197.3 900 201.3C950 205.3 1000 210.7 1050 213.3C1100 216 1150 216 1175 216L1200 216L1200 221L1175 221C1150 221 1100 221 1050 221C1000 221 950 221 900 221C850 221 800 221 750 221C700 221 650 221 600 221C550 221 500 221 450 221C400 221 350 221 300 221C250 221 200 221 150 221C100 221 50 221 25 221L0 221Z" fill="#4f0d29"></path></svg>